<svg width="545" height="485" viewBox="0 0 545 485" fill="none" xmlns="http://www.w3.org/2000/svg">
<g clip-path="url(#clip0_1_2)">
<path d="M256.692 286.126L256.686 327.406H297.638L256.692 286.126Z" fill="#12A085"/>
<path d="M458.617 14.078C447.598 4.617 433.215 0 418.692 0H60.77C46.232 0 31.833 4.615 20.796 14.077C6.92 25.973 0 41.094 0 59.422V338.63C0 356.963 6.912 372.06 20.773 383.956C31.811 393.43 46.217 398.052 60.764 398.052H418.698C433.23 398.052 447.62 393.427 458.64 383.955C472.479 372.06 479.407 356.963 479.407 338.63V59.422C479.407 41.094 472.472 25.973 458.617 14.077V14.078ZM94.201 327.407V327.392C83.213 327.392 74.306 318.484 74.306 307.497H74.296L74.881 90.548H75.021C75.021 79.602 83.863 70.712 94.808 70.652V70.644H385.526C396.09 71.121 404.516 79.812 404.516 90.493H404.527L403.942 327.407H94.201Z" fill="#1E0D32"/>
<path d="M532.561 484.568H464.156C457.327 484.568 450.781 481.837 445.978 476.983L257.277 286.733H362.818L541.278 463.315C549.182 471.11 543.662 484.568 532.56 484.568H532.561Z" fill="#19E5C0"/>
</g>
<defs>
<clipPath id="clip0_1_2">
<rect width="545" height="485" fill="white"/>
</clipPath>
</defs>
</svg>
